<?xml version="1.0" encoding="utf-8"?>
<!-- Generator: Adobe Illustrator 15.0.0, SVG Export Plug-In . SVG Version: 6.00 Build 0)  -->
<!DOCTYPE svg PUBLIC "-//W3C//DTD SVG 1.1//EN" "http://www.w3.org/Graphics/SVG/1.1/DTD/svg11.dtd">
<svg version="1.1" id="Ebene_1" xmlns="http://www.w3.org/2000/svg" xmlns:xlink="http://www.w3.org/1999/xlink" x="0px" y="0px"
	 width="1024px" height="1024px" viewBox="0 0 1024 1024" enable-background="new 0 0 1024 1024" xml:space="preserve">
<path d="M512.159,1013.087c-276.777,0-501.141-224.364-501.141-501.141c0-276.777,224.364-501.141,501.141-501.141
	c276.776,0,501.141,224.363,501.141,501.141C1013.3,788.723,788.936,1013.087,512.159,1013.087z"/>
<path fill="#210A00" d="M512.001,972.292c-254.247,0-460.347-206.1-460.347-460.346C51.654,257.7,257.754,51.6,512.001,51.6
	c254.245,0,460.347,206.1,460.347,460.347C972.348,766.192,766.246,972.292,512.001,972.292z"/>
<path fill="#ED1C24" d="M512.32,122.811c-27.534,0-50.785,20.191-50.785,48.336c0,28.146,18.356,37.325,18.356,50.173
	s-7.953,12.236-12.237,14.684c-4.283,2.447-48.03,28.452-63.632,38.547c-15.603,10.097-37.935,104.934-36.711,131.244
	c1.222,26.31,15.296,110.439,15.296,115.945c0,5.507-5.507,37.937,4.895,44.668c10.401,6.731,25.699-36.712,26.31-42.219
	c0.611-5.507-2.754-109.215-3.366-116.559c-0.612-7.342,14.677-73.729,23.863-75.258c9.185-1.529,22.027,144.398,20.191,148.681
	c-1.835,4.284-38.241,327.036-51.701,346.618c-13.461,19.579-37.323,17.131-39.77,22.637c-2.449,5.508-4.284,21.416,0.612,20.805
	c4.895-0.611,91.779-3.671,94.837-12.85c3.06-9.178,53.83-289.407,53.83-289.407h-0.295c0,0,50.77,280.229,53.83,289.407
	c3.059,9.179,89.944,12.237,94.838,12.85c4.894,0.613,3.06-15.297,0.613-20.805c-2.449-5.505-26.311-3.057-39.771-22.637
	c-13.459-19.582-49.866-342.334-51.7-346.618c-1.836-4.282,11.006-150.209,20.19-148.681c9.186,1.528,24.475,67.917,23.861,75.258
	c-0.61,7.342-3.977,111.051-3.363,116.559c0.61,5.506,15.907,48.947,26.309,42.219c10.401-6.731,4.896-39.161,4.896-44.669
	c0-5.506,14.073-89.634,15.298-115.945c1.222-26.31-21.11-121.147-36.712-131.244c-15.604-10.095-59.35-36.1-63.633-38.547
	c-4.284-2.447-12.237-1.836-12.237-14.685c0-12.85,18.356-22.027,18.356-50.172c0-28.146-23.251-48.336-50.785-48.336"/>
<radialGradient id="SVGID_1_" cx="512.166" cy="430.5566" r="394.8149" gradientTransform="matrix(0.9641 0 0 0.9641 18.3931 18.2495)" gradientUnits="userSpaceOnUse">
	<stop  offset="0" style="stop-color:#FFFFFF"/>
	<stop  offset="1" style="stop-color:#FFFFFF;stop-opacity:0.19"/>
</radialGradient>
<circle opacity="0.3" fill="url(#SVGID_1_)" cx="512.16" cy="433.339" r="380.632"/>
<path display="none" d="M1024.945,511.946C1024.945,228.652,795.294-1,512.001-1C228.707-1-0.946,228.652-0.946,511.946
	l104.806,0.477c0-224.612,182.083-406.695,406.695-406.695c224.611,0,406.695,182.083,406.695,406.695L1024.945,511.946z"/>
</svg>
