<?xml version="1.0" encoding="utf-8"?>
<!-- Generator: Adobe Illustrator 15.0.0, SVG Export Plug-In . SVG Version: 6.00 Build 0)  -->
<!DOCTYPE svg PUBLIC "-//W3C//DTD SVG 1.1//EN" "http://www.w3.org/Graphics/SVG/1.1/DTD/svg11.dtd">
<svg version="1.1" id="Ebene_1" xmlns="http://www.w3.org/2000/svg" xmlns:xlink="http://www.w3.org/1999/xlink" x="0px" y="0px"
	 width="1024px" height="1024px" viewBox="0 0 1024 1024" enable-background="new 0 0 1024 1024" xml:space="preserve">
<image display="none" overflow="visible" width="4000" height="3000" xlink:href="E34710D3.jpg"  transform="matrix(0.3696 0 0 0.3696 -227.2705 -42.4526)">
</image>
<circle cx="512" cy="512" r="512"/>
<path fill="#ED1C24" d="M512.355,79.201c-30.623,0-56.483,22.457-56.483,53.76c0,31.304,20.416,41.512,20.416,55.802
	s-8.846,13.61-13.61,16.332c-4.764,2.722-53.42,31.644-70.773,42.872c-17.353,11.229-42.191,116.708-40.831,145.97
	c1.36,29.262,17.013,122.832,17.013,128.956s-6.125,42.192,5.444,49.679s28.583-40.832,29.262-46.956
	c0.68-6.125-3.062-121.47-3.743-129.637c-0.681-8.166,16.324-82.002,26.54-83.703c10.216-1.7,24.499,160.601,22.457,165.364
	c-2.041,4.764-42.531,363.731-57.502,385.509c-14.972,21.777-41.511,19.054-44.233,25.178c-2.723,6.125-4.763,23.819,0.681,23.139
	s102.077-4.083,105.479-14.291c3.403-10.208,59.869-321.881,59.869-321.881h-0.327c0,0,56.466,311.673,59.869,321.881
	c3.401,10.208,100.035,13.61,105.479,14.291s3.403-17.014,0.682-23.139c-2.724-6.123-29.262-3.4-44.233-25.178
	s-55.462-380.745-57.503-385.509c-2.042-4.763,12.241-167.064,22.457-165.364c10.215,1.7,27.221,75.537,26.539,83.703
	c-0.68,8.166-4.423,123.511-3.742,129.636c0.68,6.124,17.693,54.441,29.262,46.956c11.568-7.486,5.444-43.554,5.444-49.679
	c0-6.124,15.652-99.693,17.013-128.956c1.36-29.262-23.478-134.741-40.83-145.97c-17.354-11.228-66.01-40.15-70.773-42.872
	c-4.764-2.722-13.61-2.042-13.61-16.333c0-14.291,20.416-24.499,20.416-55.802c0-31.303-25.86-53.76-56.483-53.76"/>
</svg>
