<svg xmlns="http://www.w3.org/2000/svg" viewBox="0 0 230.667 272.333"><g fill="none" stroke="#000" stroke-width="17" stroke-miterlimit="10"><path d="M216.843 8.199H38.657c-22.742 0-30.736 17.589-30.736 31.306v195.732c0 17.768 11.309 28.896 28.897 28.896h178.957c4.441 0 6.971-1.326 6.971-6.971V67.148c0-4.44-1.648-6.161-6.16-6.161H49.758c-21.724 0-24.802-32.396 0-32.396h166.391c4.654 0 5.063-1.097 5.063-5.067V12.168c0-3.109-.871-3.969-4.369-3.969z"/><path d="M184.399 60.992V222.45l-34.711-60.078-34.543 59.824V60.992zm29.246-30.355v30.355"/></g></svg>