<svg xmlns="http://www.w3.org/2000/svg" viewBox="-2 -2.167 230.667 272.333"><g stroke="#000" stroke-width="16" stroke-miterlimit="10"><path d="M214.921 6.249H36.736C13.994 6.249 6 23.838 6 37.555v195.732c0 17.768 11.309 28.897 28.897 28.897h178.957c4.442 0 6.97-1.326 6.97-6.97V65.2c0-4.44-1.649-6.161-6.16-6.161H47.837c-21.724 0-24.802-32.396 0-32.396h166.391c4.654 0 5.065-1.097 5.065-5.067V10.22c-.002-3.111-.873-3.971-4.372-3.971z"/><path fill="#FFF" d="M182.477 59.042V220.5l-34.711-60.078-34.543 59.825V59.042z"/><path d="M211.723 28.687v30.355"/></g></svg>