<?xml version="1.0" encoding="utf-8"?>
<!-- Generator: Adobe Illustrator 15.0.0, SVG Export Plug-In . SVG Version: 6.00 Build 0)  -->
<!DOCTYPE svg PUBLIC "-//W3C//DTD SVG 1.1//EN" "http://www.w3.org/Graphics/SVG/1.1/DTD/svg11.dtd">
<svg version="1.1" id="Ebene_1" xmlns="http://www.w3.org/2000/svg" xmlns:xlink="http://www.w3.org/1999/xlink" x="0px" y="0px"
	 width="128px" height="128px" viewBox="0 0 128 128" enable-background="new 0 0 128 128" xml:space="preserve">
<path fill="#D8D8D8" d="M128,113.729c0,7.883-6.389,14.271-14.271,14.271H14.271C6.39,128,0,121.611,0,113.729V14.271
	C0,6.39,6.39,0,14.271,0h99.458C121.611,0,128,6.39,128,14.271V113.729z"/>
<g opacity="0.35">
	<defs>
		<path id="SVGID_1_" opacity="0.35" d="M128,113.729c0,7.883-6.389,14.271-14.271,14.271H14.271C6.39,128,0,121.611,0,113.729
			V14.271C0,6.39,6.39,0,14.271,0h99.458C121.611,0,128,6.39,128,14.271V113.729z"/>
	</defs>
	<clipPath id="SVGID_2_">
		<use xlink:href="#SVGID_1_"  overflow="visible"/>
	</clipPath>
	<g clip-path="url(#SVGID_2_)">
		
			<linearGradient id="SVGID_3_" gradientUnits="userSpaceOnUse" x1="54.9126" y1="-93.7227" x2="54.9126" y2="25.063" gradientTransform="matrix(-1.1627 1.1627 -0.7792 -0.7792 117.5896 -12.9782)">
			<stop  offset="0" style="stop-color:#231F20"/>
			<stop  offset="1" style="stop-color:#231F20;stop-opacity:0"/>
		</linearGradient>
		<polygon opacity="0.77" fill="url(#SVGID_3_)" points="63.665,187.003 189.871,60.794 97.316,-31.761 -28.891,94.447 		"/>
	</g>
	<g clip-path="url(#SVGID_2_)">
		
			<linearGradient id="SVGID_4_" gradientUnits="userSpaceOnUse" x1="415.2002" y1="-288.0244" x2="523.7432" y2="-288.0248" gradientTransform="matrix(0.1678 -0.1678 0.2286 0.2286 99.4242 257.4054)">
			<stop  offset="0" style="stop-color:#231F20;stop-opacity:0"/>
			<stop  offset="0.5" style="stop-color:#231F20"/>
			<stop  offset="1" style="stop-color:#231F20;stop-opacity:0"/>
		</linearGradient>
		<polygon fill="url(#SVGID_4_)" points="107.873,90.128 89.664,108.337 116.817,135.489 135.026,117.28 		"/>
	</g>
	<g clip-path="url(#SVGID_2_)">
		
			<linearGradient id="SVGID_5_" gradientUnits="userSpaceOnUse" x1="613.9004" y1="-585.6719" x2="722.4424" y2="-585.6723" gradientTransform="matrix(0.1678 0.1678 -0.2555 0.2555 -149.9612 53.5943)">
			<stop  offset="0" style="stop-color:#231F20;stop-opacity:0"/>
			<stop  offset="0.5" style="stop-color:#231F20"/>
			<stop  offset="1" style="stop-color:#231F20;stop-opacity:0"/>
		</linearGradient>
		<polygon fill="url(#SVGID_5_)" points="136.026,10.001 117.817,-8.208 87.472,22.139 105.681,40.348 		"/>
	</g>
	<g clip-path="url(#SVGID_2_)">
		
			<linearGradient id="SVGID_6_" gradientUnits="userSpaceOnUse" x1="936.2402" y1="-281.7935" x2="1044.7842" y2="-281.7939" gradientTransform="matrix(-0.1678 0.1678 -0.2532 -0.2532 109.8073 -219.9169)">
			<stop  offset="0" style="stop-color:#231F20;stop-opacity:0"/>
			<stop  offset="0.5" style="stop-color:#231F20"/>
			<stop  offset="1" style="stop-color:#231F20;stop-opacity:0"/>
		</linearGradient>
		<polygon fill="url(#SVGID_6_)" points="20.923,41.745 39.132,23.536 9.054,-6.541 -9.155,11.668 		"/>
	</g>
	<g clip-path="url(#SVGID_2_)">
		
			<linearGradient id="SVGID_7_" gradientUnits="userSpaceOnUse" x1="-43.7891" y1="71.4658" x2="64.7539" y2="71.4654" gradientTransform="matrix(0.1678 0.1678 -0.2509 0.2509 31.5147 92.7899)">
			<stop  offset="0" style="stop-color:#231F20;stop-opacity:0"/>
			<stop  offset="0.5" style="stop-color:#231F20"/>
			<stop  offset="1" style="stop-color:#231F20;stop-opacity:0"/>
		</linearGradient>
		<polygon fill="url(#SVGID_7_)" points="39.347,106.683 21.139,88.473 -8.669,118.281 9.54,136.49 		"/>
	</g>
</g>
<path fill="#F7F7F7" d="M112,101.384c0,5.862-4.754,10.616-10.616,10.616H26.616C20.753,112,16,107.246,16,101.384V26.616
	C16,20.753,20.753,16,26.616,16h74.768C107.246,16,112,20.753,112,26.616V101.384z"/>
<g>
	<path d="M54.514,73.181c-0.438-2.405-0.347-4.573,0.273-6.506c0.619-1.93,1.476-3.663,2.57-5.194
		c1.093-1.531,2.351-2.915,3.772-4.155c1.421-1.239,2.75-2.441,3.991-3.608c1.238-1.166,2.296-2.333,3.171-3.5
		c0.875-1.165,1.313-2.441,1.313-3.827c0-2.332-0.766-4.063-2.297-5.194c-1.531-1.129-3.462-1.695-5.795-1.695
		c-2.26,0-4.264,0.475-6.014,1.422c-1.75,0.948-3.463,2.151-5.14,3.608l-8.967-8.201c2.625-2.915,5.722-5.285,9.295-7.108
		c3.571-1.821,7.545-2.734,11.919-2.734c3.133,0,6.069,0.366,8.802,1.094c2.733,0.729,5.102,1.842,7.107,3.335
		c2.005,1.495,3.59,3.354,4.757,5.577c1.166,2.225,1.75,4.83,1.75,7.818c0,2.406-0.438,4.502-1.313,6.288
		c-0.875,1.787-1.968,3.39-3.28,4.812s-2.698,2.752-4.155,3.991c-1.459,1.241-2.808,2.534-4.046,3.882
		c-1.24,1.35-2.225,2.806-2.952,4.374c-0.729,1.568-0.984,3.408-0.766,5.521H54.514z M61.95,102.378
		c-3.135,0-5.741-1.039-7.818-3.117c-2.078-2.077-3.116-4.756-3.116-8.037c0-3.28,1.039-5.922,3.116-7.928
		c2.078-2.004,4.684-3.007,7.818-3.007c3.133,0,5.741,1.003,7.818,3.007c2.078,2.006,3.117,4.647,3.117,7.928
		c0,3.281-1.039,5.96-3.117,8.037C67.69,101.339,65.083,102.378,61.95,102.378z"/>
</g>
</svg>
